<?xml version="1.0" encoding="utf-8"?>
<!-- Generator: Adobe Illustrator 18.0.0, SVG Export Plug-In . SVG Version: 6.00 Build 0)  -->
<!DOCTYPE svg PUBLIC "-//W3C//DTD SVG 1.1//EN" "http://www.w3.org/Graphics/SVG/1.1/DTD/svg11.dtd">
<svg version="1.1" id="Layer_1" xmlns="http://www.w3.org/2000/svg" xmlns:xlink="http://www.w3.org/1999/xlink" x="0px" y="0px"
	 viewBox="16 0 1314 242" enable-background="new 16 0 1314 242" xml:space="preserve">
<g>
	<path fill="#EE3624" d="M646,10c35.3,0,70.6-0.5,105.9,0.3c27.2,0.6,48.5,19.1,53.1,44.3c5.2,28.6-9.6,53-32.5,59.5
		c-0.6,0.2-1.1,0.7-1.8,1.2c21.8,6.2,34.8,20.7,38.5,42.3c6,35.7-13.6,65-50.8,69.1c-8.2,0.9-16.6,0.9-24.9,0.9
		c-29.2,0.2-58.3,0.1-87.5,0.2C646,155.3,646,82.7,646,10z M692.9,186.4c0.6,0.2,1.2,0.6,1.8,0.6c14.6,0,29.3,0.5,43.9-0.1
		c15.1-0.7,24.1-10,24.5-23.7c0.4-13.7-7.9-23.7-22.7-25.4c-9.4-1.1-18.9-0.6-28.4-0.7c-6.3-0.1-12.5,0-19.1,0
		C692.9,153.6,692.9,169.7,692.9,186.4z M692.6,96.4c13.6,0,26.6,0,39.5,0c2.5,0,5,0,7.5-0.5c9.1-1.8,16-6.5,18.4-16.1
		c3.8-15.2-5.9-28.3-21.6-29.1c-7.3-0.4-14.7-0.1-22-0.1c-7.1,0-14.2,0-21.5,0c-0.1,1.6-0.3,2.5-0.3,3.5
		C692.6,67.9,692.6,81.7,692.6,96.4z"/>
	<path fill="#EE3624" d="M897.3,232.1c-5.5-1-11.1-1.8-16.6-3.1c-42.7-10.2-64.5-47-60.7-87.6c3.1-34,20.3-58.9,52.9-70.4
		c45.6-16.1,98.4,5.6,106.2,66.3c1,8,1,16.2,1.5,25c-20.4,0-39.8,0-59.3,0c-19.3,0-38.5,0-58.4,0c2.7,14.9,10.3,25.4,23.4,31
		c21.3,9.1,41.3,4.5,60.2-7.6c1.1-0.7,2.1-1.6,3.2-2.3c0.1-0.1,0.3,0,1.1,0c5.8,8.5,11.7,17.3,18.4,27.1c-6.1,3.8-11.7,7.9-17.8,11
		c-11.3,5.7-23.4,8.7-35.9,9.7c-1.4,0.1-2.8,0.7-4.2,1C906.6,232.1,901.9,232.1,897.3,232.1z M940,133.6
		c0.8-19.6-17.8-34.5-41.5-33.6c-19.6,0.8-37.1,17.4-35,33.6C889,133.6,914.5,133.6,940,133.6z"/>
	<path fill="#EE3624" d="M1066.3,232.1c-6.8-1.4-13.7-2.3-20.4-4.2c-31.8-8.8-53.8-35.7-56.7-68.6c-2.7-31,6.3-57.3,31.2-76.9
		c37.7-29.7,111.9-22.9,126.6,47.2c1.1,5,1.7,10.2,2,15.3c0.3,5.4,0.1,10.9,0.1,17.2c-19.7,0-39.1,0-58.5,0c-19.3,0-38.6,0-58.4,0
		c1,8.8,4.4,15.8,10.1,21.7c12.9,13.3,29.1,15.9,46.5,12.8c11.1-2,21.4-6.2,30.6-14.1c6.2,9.1,12.3,18,18.8,27.6
		c-4.9,3.3-9.3,6.7-14.2,9.4c-12.1,6.6-25.2,10.1-39,11.4c-1.6,0.1-3.2,0.7-4.7,1C1075.6,232.1,1070.9,232.1,1066.3,232.1z
		 M1032.5,133.6c25.5,0,51,0,76.5,0c1-19-17.2-34.1-40.1-33.6C1048.6,100.4,1031,116.4,1032.5,133.6z"/>
	<path fill="#EE3624" d="M253.3,232.1c-5-1-10-1.9-15-3.1c-30.7-7.3-48.9-30.3-48.9-62c0-30.3,0-60.7,0-91c0-1.7,0-3.3,0-5.4
		c13.8,0,27.3,0,41.6,0c0,1.9,0,3.8,0,5.8c0,28.7,0.1,57.3,0,86c-0.1,13,3.9,24,16.2,29.7c13.3,6.1,27,5.9,39.4-2.9
		c9-6.4,11.6-16.3,11.6-26.9c0.1-28.5,0-57,0-85.5c0-2,0-3.9,0-6.3c13.7,0,27,0,41.1,0c0,1.8,0,3.7,0,5.6c0,30,0,60,0,90
		c0,36.2-22.5,61.1-58.7,64.9c-1.8,0.2-3.5,0.7-5.3,1.1C267.9,232.1,260.6,232.1,253.3,232.1z"/>
	<path fill="#EE3624" d="M32,230.2c0-72.5,0-144.8,0-217.4c50.3,0,100.4,0,151.2,0c0,7.2,0,14.1,0,21.1c0,4.7-0.3,9.4,0.1,14
		c0.4,4.6-1.5,5.5-5.7,5.5c-29.8-0.2-59.7-0.1-89.5-0.1c-3,0-6,0-9.4,0c0,15.1,0,30,0,45.8c1.8,0,3.7,0,5.6,0
		c22.5,0,45,0.1,67.5-0.1c4.5,0,5.6,1.4,5.5,5.7c-0.3,11.5-0.1,22.9-0.1,34.9c-26.5,0-52.4,0-78.9,0c0,30.5,0,60.4,0,90.6
		C62.6,230.2,47.5,230.2,32,230.2z"/>
	<path fill="#EE3624" d="M1159.7,227.5c0-2.1,0-3.9,0-5.7c0-48.6,0-97.3,0-145.9c0-6.4,0-6.4,6.6-6.4c22.8,0.2,45.7-0.8,68.4,1
		c32.3,2.5,57.6,17.1,69.6,49c12.2,32.4,2.9,69.4-21.8,89.7c-14.6,11.9-31.7,17.8-50.2,18.5c-23.5,0.8-47,0.3-70.5,0.3
		C1161.3,228,1160.8,227.8,1159.7,227.5z M1199.3,194.2c8,0,15.4,0,22.9,0c26.8,0,43.7-15.1,46.7-41.8c2.2-19.2-8.2-38.2-24.7-45
		c-14.5-6-29.7-2.8-44.9-3.6C1199.3,134.1,1199.3,163.7,1199.3,194.2z"/>
	<path fill="#EE3624" d="M423,106.1c-24.1,0-47,0-70.4,0c0-12,0-23.7,0-35.7c42.2,0,84.3,0,127.3,0c0,6.7-0.3,13.5,0.1,20.2
		c0.4,6.2-1.5,11-5.4,15.8c-21.2,26.3-42,53-63,79.5c-1.1,1.4-2.2,2.9-3.9,5.2c24.8,0,48.7,0,73,0c0,12.5,0,24.2,0,36.4
		c-42.5,0-85.2,0-128.5,0c0-9.9-0.1-19.9,0.1-29.8c0-1.7,1.8-3.5,3-5c21.5-27.4,43-54.7,64.5-82.1
		C420.7,109.6,421.5,108.3,423,106.1z"/>
	<path fill="#EE3624" d="M492.1,106.2c0-11.3,0-21.6,0-31.9c0-1.1,0.2-2.3,0.3-3.8c42.2,0,84.2,0,126.9,0c0,9.6,0.1,19-0.1,28.5
		c0,1.4-1.4,2.9-2.4,4.2c-21.9,27.7-43.7,55.4-65.6,83.2c-1.1,1.4-2,2.8-3.7,5.2c2.9,0,4.6,0,6.4,0c20.7,0,41.3,0.1,62-0.1
		c3.8,0,5.3,0.9,5.2,5c-0.3,10.3-0.1,20.6-0.1,31.2c-43,0-85.6,0-128.7,0c0-10.3-0.1-20.4,0.1-30.5c0-1.3,1.4-2.6,2.3-3.7
		c21-26.7,42-53.4,63-80.1c1.6-2,3.2-4.1,5.5-7.1C538.9,106.2,515.8,106.2,492.1,106.2z"/>
</g>
</svg>
